<svg xmlns="http://www.w3.org/2000/svg" xmlns:xlink="http://www.w3.org/1999/xlink" width="178" height="130" viewBox="0 0 178 130">
  <defs>
    <linearGradient id="linear-gradient" x1="0.5" x2="0.5" y2="1" gradientUnits="objectBoundingBox">
      <stop offset="0" stop-color="#e9e9e9"/>
      <stop offset="1" stop-color="#fff" stop-opacity="0"/>
    </linearGradient>
    <linearGradient id="linear-gradient-2" x1="0.5" x2="0.5" y2="1" gradientUnits="objectBoundingBox">
      <stop offset="0" stop-color="#dcdcdc"/>
      <stop offset="1" stop-color="#fff" stop-opacity="0"/>
    </linearGradient>
    <linearGradient id="linear-gradient-3" x1="0.5" x2="0.5" y2="1" gradientUnits="objectBoundingBox">
      <stop offset="0" stop-color="#f1f1f1"/>
      <stop offset="1" stop-color="#fff" stop-opacity="0"/>
    </linearGradient>
    <linearGradient id="linear-gradient-5" x1="0.5" x2="0.5" y2="1" gradientUnits="objectBoundingBox">
      <stop offset="0" stop-color="#dedede"/>
      <stop offset="1" stop-color="#fff" stop-opacity="0"/>
    </linearGradient>
    <linearGradient id="linear-gradient-7" x1="0.5" x2="0.5" y2="1" gradientUnits="objectBoundingBox">
      <stop offset="0" stop-color="#e8e8e8"/>
      <stop offset="1" stop-color="#fff" stop-opacity="0"/>
    </linearGradient>
    <linearGradient id="linear-gradient-9" x1="0.213" y1="1.265" x2="0.846" gradientUnits="objectBoundingBox">
      <stop offset="0" stop-color="#fff"/>
      <stop offset="1" stop-color="#f5f5f5"/>
    </linearGradient>
    <linearGradient id="linear-gradient-10" x1="0.5" x2="0.5" y2="1" gradientUnits="objectBoundingBox">
      <stop offset="0" stop-color="#c5c5c5"/>
      <stop offset="1" stop-color="#fff" stop-opacity="0"/>
    </linearGradient>
  </defs>
  <g id="暂无数据" transform="translate(-93 -153)">
    <rect id="矩形_639" data-name="矩形 639" width="178" height="130" transform="translate(93 153)" fill="none"/>
    <g id="暂无数据-2" data-name="暂无数据" transform="translate(31.648 -170.376)">
      <g id="组_72" data-name="组 72" transform="translate(71.94 323.376)">
        <path id="路径_82" data-name="路径 82" d="M0,10.795,36.6,0V93.779L0,104.574Z" transform="translate(17.878 11.142)" fill="url(#linear-gradient)"/>
        <path id="路径_81" data-name="路径 81" d="M-8.492,10.642-26.361-.469v93.78l17.868,11.111Z" transform="translate(26.37 11.293)" fill="url(#linear-gradient-2)"/>
        <path id="路径_80" data-name="路径 80" d="M-8.5,5.55,28.106-5.3,10.228-16.437l-36.6,10.845Z" transform="translate(26.375 16.438)" fill="url(#linear-gradient-3)"/>
      </g>
      <g id="组_70" data-name="组 70" transform="translate(170.053 326.113)">
        <path id="路径_78" data-name="路径 78" d="M0,10.539,35.741,0V91.56L0,102.1Z" transform="translate(17.457 10.88)" fill="url(#linear-gradient-3)"/>
        <path id="路径_79" data-name="路径 79" d="M-8.913,10.38-26.361-.469V91.093l17.448,10.848Z" transform="translate(26.37 11.038)" fill="url(#linear-gradient-5)"/>
        <path id="路径_77" data-name="路径 77" d="M-8.918,5.032,26.823-5.558,9.366-16.437-26.375-5.848Z" transform="translate(26.375 16.438)" fill="url(#linear-gradient-3)"/>
      </g>
      <g id="组_71" data-name="组 71" transform="translate(101.968 354.568)">
        <path id="路径_74" data-name="路径 74" d="M0,9.137,30.839,0V79.381L0,88.519Z" transform="translate(15.062 9.387)" fill="url(#linear-gradient-7)"/>
        <path id="路径_75" data-name="路径 75" d="M-11.306,8.936l-15.054-9.4V78.913l15.054,9.4Z" transform="translate(26.369 9.588)" fill="url(#linear-gradient-2)"/>
        <path id="路径_76" data-name="路径 76" d="M-11.313,2.087,19.526-7.05,4.464-16.437-26.375-7.3Z" transform="translate(26.375 16.438)" fill="url(#linear-gradient-9)"/>
      </g>
      <path id="减去_26" data-name="减去 26" d="M178,53H0A51.361,51.361,0,0,1,10.453,32.048,74.532,74.532,0,0,1,30.195,15.237,103.3,103.3,0,0,1,57.089,4.058a127.515,127.515,0,0,1,63.823,0,103.3,103.3,0,0,1,26.894,11.179,74.532,74.532,0,0,1,19.741,16.811A51.363,51.363,0,0,1,178,53Z" transform="translate(61.352 399.925)" fill="url(#linear-gradient-10)"/>
      <g id="组_69" data-name="组 69" transform="translate(132.302 361)">
        <path id="路径_83" data-name="路径 83" d="M581.017,1596.617v49.077l47.622,22.879v-49.69Z" transform="translate(-576.294 -1596.617)" fill="#fff"/>
        <path id="路径_84" data-name="路径 84" d="M581.017,1596.617v49.077l47.622,22.879v-49.69Z" transform="translate(-577.081 -1595.829)" fill="#fff"/>
        <path id="路径_85" data-name="路径 85" d="M581.017,1596.617v49.077l47.622,22.879v-49.69Z" transform="translate(-577.868 -1595.042)" fill="#fff"/>
        <path id="路径_86" data-name="路径 86" d="M581.017,1596.617v49.077l47.622,22.879v-49.69Z" transform="translate(-578.655 -1594.255)" fill="#fff"/>
        <path id="路径_87" data-name="路径 87" d="M581.017,1596.617v49.077l47.622,22.879v-49.69Z" transform="translate(-579.442 -1594.255)" fill="#fff"/>
        <path id="路径_88" data-name="路径 88" d="M581.017,1596.617v49.077l47.622,22.879v-49.69Z" transform="translate(-580.23 -1594.255)" fill="#fff"/>
        <path id="路径_89" data-name="路径 89" d="M581.017,1596.617v49.077l47.622,22.879v-49.69Z" transform="translate(-581.017 -1594.255)" fill="#fff"/>
      </g>
      <path id="路径_90" data-name="路径 90" d="M581.017,1596.617v49.077l47.622,22.879v-49.69Z" transform="translate(-449.519 -1233.255)" fill="#f9f9f9"/>
      <path id="路径_94" data-name="路径 94" d="M0,26.871s15.206.524,39.5-4.48S60.83,8.41,60.83,8.41,54-1.55,39.493,2.677s-25.432,9.148-17.182,15.8,43.59,3.045,61.5-5.717S103.808,0,103.808,0" transform="matrix(0.998, -0.07, 0.07, 0.998, 97.323, 419.319)" fill="none" stroke="#b2b2b2" stroke-width="1" stroke-dasharray="5"/>
      <path id="路径_91" data-name="路径 91" d="M574.188,1596.617s1.272,18.485-5.043,29.734-20.217,15.261-20.217,15.261l36.782,21.521s16.629,1.735,24.455-12.2,11.645-32.05,11.645-32.05Z" transform="translate(-442.761 -1233.08)" fill="#fff"/>
      <path id="路径_71" data-name="路径 71" d="M581.017,1595.333l9.439-1.709,46.47,21.311-8.288,2.664Z" transform="translate(-451.078 -1235.579)" fill="#f8f8f8"/>
      <path id="路径_92" data-name="路径 92" d="M584.452,1595.754a7.81,7.81,0,0,0,2.033-.791,5.66,5.66,0,0,0,1.455-1.338l28.986,13.2a6.919,6.919,0,0,1-1.686,1.445,9.062,9.062,0,0,1-2.256.854Z" transform="translate(-459.552 -1191.323)" fill="#b2b2b2"/>
      <path id="路径_204" data-name="路径 204" d="M584.452,1595.754a7.81,7.81,0,0,0,2.033-.791,5.66,5.66,0,0,0,1.455-1.338l28.986,13.2a6.919,6.919,0,0,1-1.686,1.445,9.062,9.062,0,0,1-2.256.854Z" transform="translate(-454.829 -1197.621)" fill="#b2b2b2"/>
      <path id="路径_205" data-name="路径 205" d="M584.452,1595.754a7.81,7.81,0,0,0,2.033-.791,5.66,5.66,0,0,0,1.455-1.338l28.986,13.2a6.919,6.919,0,0,1-1.686,1.445,9.062,9.062,0,0,1-2.256.854Z" transform="translate(-450.106 -1204.492)" fill="#b2b2b2"/>
      <path id="路径_206" data-name="路径 206" d="M584.452,1595.754a7.81,7.81,0,0,0,2.033-.791,5.66,5.66,0,0,0,1.455-1.338l28.986,13.2a6.919,6.919,0,0,1-1.686,1.445,9.062,9.062,0,0,1-2.256.854Z" transform="translate(-446.957 -1212.151)" fill="#b2b2b2"/>
      <path id="路径_93" data-name="路径 93" d="M584.452,1595.754a12.194,12.194,0,0,0,2.118-.943,5.41,5.41,0,0,0,1.369-1.186l28.986,13.2a5.509,5.509,0,0,1-1.644,1.637,6.071,6.071,0,0,1-2.3.663Z" transform="translate(-465.877 -1186.404)" fill="#b2b2b2"/>
      <path id="路径_72" data-name="路径 72" d="M581.017,1596.617v5.6l47.622,22.879v-6.217Z" transform="translate(-451.101 -1236.878)" fill="#d2d2d2"/>
      <path id="路径_73" data-name="路径 73" d="M664.4,1639.836l8.288-3.213v-5.684L664.4,1633.6Z" transform="translate(-486.76 -1251.648)" fill="#e8e8e8"/>
      <g id="组_73" data-name="组 73" transform="matrix(0.978, -0.208, 0.208, 0.978, 196.582, 398.165)">
        <path id="路径_95" data-name="路径 95" d="M0,4.459,23.695,0,7.968,9.436Z" transform="translate(0 0)" fill="none" stroke="#707070" stroke-linecap="round" stroke-linejoin="round" stroke-width="1"/>
        <path id="路径_96" data-name="路径 96" d="M3.174,17.089,15.727,0,0,9.436Z" transform="translate(7.968 0)" fill="none" stroke="#707070" stroke-linecap="round" stroke-linejoin="round" stroke-width="1"/>
      </g>
    </g>
  </g>
</svg>
