<?xml version="1.0" standalone="no"?><!DOCTYPE svg PUBLIC "-//W3C//DTD SVG 1.1//EN" "http://www.w3.org/Graphics/SVG/1.1/DTD/svg11.dtd"><svg t="1630589410243" class="icon" viewBox="0 0 1024 1024" version="1.1" xmlns="http://www.w3.org/2000/svg" p-id="3053" xmlns:xlink="http://www.w3.org/1999/xlink" width="200" height="200"><defs><style type="text/css"></style></defs><path d="M716.271872 203.053626c12.088316 0 21.887496-9.7869 21.887496-21.877264v-43.766806c0-12.088316-9.79918-21.886473-21.887496-21.886473-12.08627 0-21.880333 9.797134-21.880333 21.886473v43.766806c0 12.089339 9.794064 21.877263 21.880333 21.877264z m-204.275454 0c12.091386 0 21.887496-9.7869 21.887497-21.877264v-43.766806c0-12.088316-9.795087-21.886473-21.887497-21.886473-12.08627 0-21.881356 9.797134-21.881356 21.886473v43.766806c0 12.089339 9.795087 21.877263 21.881356 21.877264z m-204.273406 0c12.089339 0 21.88545-9.7869 21.885449-21.877264v-43.766806c0-12.088316-9.79611-21.886473-21.885449-21.886473-12.085246 0-21.881356 9.797134-21.881357 21.886473v43.766806c0 12.089339 9.79611 21.877263 21.881357 21.877264z m673.454182 661.654438h-143.580093V506.525312c0-12.105712-9.801227-21.884426-21.888519-21.884427h-77.550237V251.506151c0-12.102642-9.79918-21.884426-21.887497-21.884427-12.08627 0-21.880333 9.781784-21.880333 21.884427v233.135758H533.883915V251.506151c0-12.102642-9.795087-21.884426-21.887497-21.884427-12.08627 0-21.881356 9.781784-21.881356 21.884427v233.135758H329.608461V251.506151c0-12.102642-9.798157-21.884426-21.885449-21.884427-12.088316 0-21.883403 9.781784-21.883403 21.884427v233.135758h-77.55433c-12.085246 0-21.883403 9.778714-21.883403 21.884426v358.181729H42.82076c-12.08627 0-21.881356 9.778714-21.881357 21.881356 0 12.075013 9.79611 21.887496 21.881357 21.887497h938.351317c12.091386 0 21.887496-9.812483 21.887497-21.887497 0-12.102642-9.78997-21.881356-21.88238-21.881356zM230.173798 636.08304c2.868327 5.273097 5.831822 11.294231 8.993838 17.854646 13.915941 28.92989 31.251771 64.935941 70.300113 64.935942 39.050388 0 56.386218-36.007075 70.321602-64.904219 11.317767-23.523763 20.173458-40.148395 30.894637-40.148396 10.700713 0 19.545148 16.624632 30.857799 40.116673 13.920034 28.92989 31.253818 64.935941 70.290902 64.935942 39.066761 0 56.414871-36.007075 70.347185-64.935942 11.317767-23.49204 20.179598-40.116673 30.896684-40.116673 10.767228 0 19.630083 16.624632 30.963199 40.148396 13.954827 28.925796 31.286564 64.904219 70.353324 64.904219 39.083134 0 56.437383-36.007075 70.387094-64.935942 3.179412-6.588045 6.163373-12.631692 9.041934-17.921161v227.937362H230.173798V636.08304z m563.648311-107.673302v46.022173c-24.292266 10.426467-37.44482 37.665855-48.465829 60.497863-11.333116 23.523763-20.194948 40.169885-30.963199 40.169884-10.733459 0-19.590174-16.651238-30.929429-40.137139-13.944594-28.930913-31.30396-64.905242-70.387094-64.905242-39.050388 0-56.388265 35.973306-70.320579 64.905242-11.338233 23.491017-20.174482 40.137139-30.924313 40.137139-10.708899 0-19.544125-16.651238-30.861892-40.137139-13.919011-28.930913-31.253818-64.905242-70.287832-64.905242-39.049365 0-56.386218 35.973306-70.321602 64.905242-11.31572 23.491017-20.171412 40.137139-30.894638 40.137139-10.721179 0-19.556405-16.651238-30.876218-40.137139-10.994402-22.854521-24.134677-50.092885-48.416709-60.530608v-46.022173h563.649334z" fill="#707070" p-id="3054"></path></svg>