<?xml version="1.0" standalone="no"?><!DOCTYPE svg PUBLIC "-//W3C//DTD SVG 1.1//EN" "http://www.w3.org/Graphics/SVG/1.1/DTD/svg11.dtd"><svg t="1629813730291" class="icon" viewBox="0 0 1024 1024" version="1.1" xmlns="http://www.w3.org/2000/svg" p-id="6449" xmlns:xlink="http://www.w3.org/1999/xlink" width="200" height="200"><defs><style type="text/css"></style></defs><path d="M490.026 819.604L120.39 423.977c-15.384-16.464-2.275-41.516 21.839-41.516h236.016V22.663c0-12.511 9.782-22.663 21.81-22.663h220.861c12.028 0 21.81 10.152 21.81 22.663v359.798H881.53c24.113 0 37.25 25.052 21.838 41.516L533.704 819.575c-11.346 12.142-32.275 12.142-43.65 0zM883.662 926.18c14.503 0 26.304 9.583 26.304 21.44v54.626c0 11.829-11.801 21.44-26.304 21.44H140.067c-14.559 0-26.303-9.611-26.303-21.44V947.65c0-11.886 11.744-21.469 26.303-21.469h743.595z" fill="#3C8EF9" p-id="6450"></path></svg>