<?xml version="1.0" standalone="no"?><!DOCTYPE svg PUBLIC "-//W3C//DTD SVG 1.1//EN" "http://www.w3.org/Graphics/SVG/1.1/DTD/svg11.dtd"><svg t="1629813512299" class="icon" viewBox="0 0 1024 1024" version="1.1" xmlns="http://www.w3.org/2000/svg" p-id="3952" xmlns:xlink="http://www.w3.org/1999/xlink" width="200" height="200"><defs><style type="text/css"></style></defs><path d="M759.125333 348.16a166.741333 166.741333 0 0 0-117.674666-48.298667h-0.426667c-21.418667 0-42.282667 4.010667-62.165333 11.861334a164.437333 164.437333 0 0 0-54.997334 35.925333L368.64 501.12c-17.92 17.749333-27.733333 41.386667-27.648 66.688a93.44 93.44 0 0 0 27.989333 66.645333c18.005333 17.834667 41.856 27.605333 67.328 27.690667h0.213334c25.386667 0 49.194667-9.728 67.072-27.306667l136.234666-134.698666a23.253333 23.253333 0 0 0 0-33.322667 23.893333 23.893333 0 0 0-33.578666 0l-136.277334 134.656a47.232 47.232 0 0 1-33.536 13.610667h-0.042666a48.128 48.128 0 0 1-33.877334-13.866667 46.848 46.848 0 0 1-13.994666-33.493333 45.866667 45.866667 0 0 1 13.738666-33.194667l155.264-153.514667a117.930667 117.930667 0 0 1 83.584-34.005333h0.341334c31.872 0.042667 61.781333 12.330667 84.266666 34.474667 22.4 22.186667 34.816 51.712 34.858667 83.2a115.285333 115.285333 0 0 1-34.346667 82.858666l-164.693333 162.986667a175.402667 175.402667 0 0 1-123.904 50.261333h-0.426667a176.896 176.896 0 0 1-124.629333-51.072 172.288 172.288 0 0 1-51.626667-123.136 170.538667 170.538667 0 0 1 50.944-122.709333l212.693334-210.261333a23.253333 23.253333 0 0 0 0-33.365334 23.893333 23.893333 0 0 0-33.706667-0.042666L278.186667 430.506667A217.386667 217.386667 0 0 0 213.333333 586.666667c0.085333 28.757333 5.589333 56.746667 16.554667 83.2a222.890667 222.890667 0 0 0 123.008 121.685333c26.624 10.752 54.954667 16.213333 84.096 16.341333h0.597333a224 224 0 0 0 157.354667-64.128l164.693333-162.944a163.157333 163.157333 0 0 0 48.341334-116.394666c-0.170667-43.989333-17.493333-85.333333-48.853334-116.352z" fill="#1296db" p-id="3953"></path></svg>