<?xml version="1.0" standalone="no"?><!DOCTYPE svg PUBLIC "-//W3C//DTD SVG 1.1//EN" "http://www.w3.org/Graphics/SVG/1.1/DTD/svg11.dtd"><svg t="1630411875288" class="icon" viewBox="0 0 1024 1024" version="1.1" xmlns="http://www.w3.org/2000/svg" p-id="5719" width="200" height="200" data-spm-anchor-id="a313x.7781069.0.i9" xmlns:xlink="http://www.w3.org/1999/xlink"><defs><style type="text/css"></style></defs><path d="M961.8 187.4l-411-2.8c0.3 2.8-27-56.4-38.7-56.4H95.4c-15 0-26.3 27.7-23.7 57.8l46.9 532.9c2.1 23.4 12 40.4 23.7 40.4H488c11.8 0 21.9-17.5 23.8-41.2l16.4-206.7L550 758.2c2.1 23.4 12 40.4 23.7 40.4h345.7c11.8 0 21.9-17.5 23.8-41.2l42.4-532.8c2.3-30-9-37.2-23.8-37.2z" fill="#FCC71D" p-id="5720" data-spm-anchor-id="a313x.7781069.0.i11" class="selected"></path><path d="M136.3 234.5h821.5v63.1H136.3z" fill="#FFFFFF" p-id="5721" data-spm-anchor-id="a313x.7781069.0.i10" class="selected"></path><path d="M877.2 895.8h-721c-24.3 0-45.1-16.6-49.4-39.4L9 337.3C3.5 308 27.1 281 58.4 281h907.2c30.9 0 54.5 26.4 49.5 55.5l-88.4 519.1c-3.9 23.1-24.9 40.2-49.5 40.2z" fill="#FCC71D" p-id="5722"></path><path d="M855.7 842H178.6c-22.8 0-42.4-14.4-46.4-34.2L40.3 357.1c-5.2-25.5 17-48.9 46.4-48.9h852c29 0 51.2 22.9 46.5 48.2l-83 450.7c-3.7 20.1-23.4 34.9-46.5 34.9z" fill="#FFDE83" opacity=".5" p-id="5723" data-spm-anchor-id="a313x.7781069.0.i7" class="selected"></path><path d="M543.1 457.7H421.9c-16.1 0-29.2 13.1-29.2 29.2v260.6c0 16.1 13.1 29.2 29.2 29.2h174.4c16.1 0 29.2-13.1 29.2-29.2V536l-82.4-78.3z" fill="#FCC71D" opacity=".3" p-id="5724" data-spm-anchor-id="a313x.7781069.0.i6" class="selected"></path><path d="M618.8 537.6l-77.9-74.5-1.8 51.3c0 12.1 9.7 21.9 21.7 22.1l58 1.1z" fill="#C68D00" opacity=".3" p-id="5725"></path></svg>