<?xml version="1.0" standalone="no"?><!DOCTYPE svg PUBLIC "-//W3C//DTD SVG 1.1//EN" "http://www.w3.org/Graphics/SVG/1.1/DTD/svg11.dtd"><svg t="1630589532879" class="icon" viewBox="0 0 1024 1024" version="1.1" xmlns="http://www.w3.org/2000/svg" p-id="6108" xmlns:xlink="http://www.w3.org/1999/xlink" width="200" height="200"><defs><style type="text/css"></style></defs><path d="M544 193.344c55.68 4.48 101.248 19.648 135.68 46.08 43.264 32.768 67.584 81.92 73.92 146.624h-73.024c-8.128-44.8-26.176-77.632-54.08-99.2-21.184-16.448-48.64-26.368-82.496-30.528v219.52c71.424 20.992 119.36 38.528 143.744 52.544 53.184 31.04 80.256 74.24 80.256 130.24 0 53.504-22.528 96.64-67.584 127.68-39.936 26.688-91.84 41.92-156.416 45.056V896h-64v-65.408c-57.792-4.48-104.512-19.584-140.16-45.184-50.496-37.12-78.4-93.12-83.84-169.024h72.96c6.4 53.44 26.24 93.12 58.624 118.144 22.784 17.152 53.44 28.288 92.416 32.512v-243.84c-68.992-20.352-113.6-36.032-132.928-45.696C297.472 449.92 273.152 410.24 273.152 358.4c0-53.504 23.424-95.744 71.168-125.056 36.224-23.616 81.6-37.12 135.68-40.512V128h64v65.344z m-64 61.44c-35.968 2.112-64.832 8.96-87.04 21.76-30.592 17.28-45.888 43.136-45.888 78.464 0 31.04 17.984 56.064 54.976 75.072 12.416 6.592 38.528 15.68 77.952 27.328V254.784z m64 513.472c40.896-2.688 75.328-11.904 102.336-27.712 32.448-18.944 48.64-44.8 48.64-77.632 0-38.784-21.632-68.992-64-90.56-13.504-7.68-42.752-17.92-86.976-30.912v226.816zM512 1024A512 512 0 1 1 512 0a512 512 0 0 1 0 1024z m448-512A448 448 0 1 0 64 512a448 448 0 0 0 896 0z" fill="#888888" p-id="6109"></path></svg>