<?xml version="1.0" standalone="no"?><!DOCTYPE svg PUBLIC "-//W3C//DTD SVG 1.1//EN" "http://www.w3.org/Graphics/SVG/1.1/DTD/svg11.dtd"><svg t="1627561993844" class="icon" viewBox="0 0 1024 1024" version="1.1" xmlns="http://www.w3.org/2000/svg" p-id="1997" xmlns:xlink="http://www.w3.org/1999/xlink" width="200" height="200"><defs><style type="text/css">@font-face { font-family: feedback-iconfont; src: url("//at.alicdn.com/t/font_1031158_1uhr8ri0pk5.eot?#iefix") format("embedded-opentype"), url("//at.alicdn.com/t/font_1031158_1uhr8ri0pk5.woff2") format("woff2"), url("//at.alicdn.com/t/font_1031158_1uhr8ri0pk5.woff") format("woff"), url("//at.alicdn.com/t/font_1031158_1uhr8ri0pk5.ttf") format("truetype"), url("//at.alicdn.com/t/font_1031158_1uhr8ri0pk5.svg#iconfont") format("svg"); }
</style></defs><path d="M512 192C230.4 192 0 512 0 512s230.4 320 512 320 512-320 512-320-230.4-320-512-320z m0 512c-108.8 0-192-83.2-192-192s83.2-192 192-192 192 83.2 192 192-83.2 192-192 192z m89.6-281.6c-12.8-12.8-25.6-19.2-38.4-25.6-19.2-6.4-32-12.8-51.2-12.8-19.2 0-32 6.4-51.2 12.8-12.8 6.4-25.6 12.8-38.4 25.6-12.8 12.8-19.2 25.6-25.6 38.4-6.4 19.2-12.8 32-12.8 51.2 0 19.2 6.4 32 12.8 51.2 6.4 12.8 12.8 25.6 25.6 38.4 12.8 12.8 25.6 19.2 38.4 25.6 19.2 6.4 32 12.8 51.2 12.8 19.2 0 32-6.4 51.2-12.8 12.8-6.4 25.6-12.8 38.4-25.6 12.8-12.8 19.2-25.6 25.6-38.4 6.4-19.2 12.8-32 12.8-51.2 0-19.2-6.4-32-12.8-51.2-6.4-12.8-12.8-25.6-25.6-38.4z" p-id="1998" fill="#707070"></path></svg>